<?xml version="1.0" standalone="no"?>
<!DOCTYPE svg PUBLIC "-//W3C//DTD SVG 20010904//EN"
 "http://www.w3.org/TR/2001/REC-SVG-20010904/DTD/svg10.dtd">
<svg version="1.0" xmlns="http://www.w3.org/2000/svg"
 width="120.000000pt" height="87.000000pt" viewBox="0 0 120.000000 87.000000"
 preserveAspectRatio="xMidYMid meet">

<g transform="translate(0.000000,87.000000) scale(0.100000,-0.100000)"
fill="#000000" stroke="none">
<path d="M0 435 l0 -435 600 0 600 0 0 435 0 435 -600 0 -600 0 0 -435z m600
292 c26 -13 52 -35 63 -54 l19 -33 -176 0 c-197 0 -200 1 -145 64 50 58 146
67 239 23z m297 -19 c6 -5 16 -22 22 -39 l10 -29 -120 0 c-69 0 -119 4 -119
10 0 13 85 62 123 70 34 7 65 3 84 -12z m-616 -34 c11 -10 19 -21 19 -26 0 -4
-36 -8 -79 -8 l-80 0 11 31 c11 31 12 31 61 26 27 -4 58 -14 68 -23z"/>
</g>
</svg>
